<mxfile host="app.diagrams.net" modified="2021-01-25T20:19:48.225Z" agent="5.0 (Windows NT 10.0; Win64; x64) AppleWebKit/537.36 (KHTML, like Gecko) Chrome/88.0.4324.96 Safari/537.36" etag="g66yZ3fS8voWOdhclkgI" version="14.2.7" type="github">
  <diagram id="Wmp_nvGAifpqo0GNtrIs" name="Page-1">
    <mxGraphModel dx="677" dy="1549" grid="1" gridSize="10" guides="1" tooltips="1" connect="1" arrows="1" fold="1" page="1" pageScale="1" pageWidth="827" pageHeight="1169" math="0" shadow="0">
      <root>
        <mxCell id="0" />
        <mxCell id="1" parent="0" />
        <mxCell id="6msiCI85SDnWUIfsM1__-15" style="edgeStyle=orthogonalEdgeStyle;rounded=0;orthogonalLoop=1;jettySize=auto;html=1;exitX=0.5;exitY=0;exitDx=0;exitDy=0;entryX=0.502;entryY=0.992;entryDx=0;entryDy=0;entryPerimeter=0;" parent="1" source="6msiCI85SDnWUIfsM1__-5" target="6msiCI85SDnWUIfsM1__-19" edge="1">
          <mxGeometry relative="1" as="geometry">
            <mxPoint x="721" y="59" as="targetPoint" />
            <Array as="points">
              <mxPoint x="414" y="90" />
              <mxPoint x="680" y="90" />
            </Array>
          </mxGeometry>
        </mxCell>
        <mxCell id="6msiCI85SDnWUIfsM1__-24" style="edgeStyle=orthogonalEdgeStyle;rounded=0;orthogonalLoop=1;jettySize=auto;html=1;exitX=0.25;exitY=0;exitDx=0;exitDy=0;entryX=0.438;entryY=1.154;entryDx=0;entryDy=0;entryPerimeter=0;" parent="1" source="6msiCI85SDnWUIfsM1__-5" target="6msiCI85SDnWUIfsM1__-23" edge="1">
          <mxGeometry relative="1" as="geometry">
            <Array as="points">
              <mxPoint x="342" y="60" />
              <mxPoint x="170" y="60" />
            </Array>
          </mxGeometry>
        </mxCell>
        <mxCell id="6msiCI85SDnWUIfsM1__-5" value="Server" style="swimlane;fontStyle=1;align=center;verticalAlign=top;childLayout=stackLayout;horizontal=1;startSize=26;horizontalStack=0;resizeParent=1;resizeParentMax=0;resizeLast=0;collapsible=1;marginBottom=0;" parent="1" vertex="1">
          <mxGeometry x="269" y="150" width="290" height="130" as="geometry" />
        </mxCell>
        <mxCell id="6msiCI85SDnWUIfsM1__-6" value="- queue: player[]&#xa;- game_id: int" style="text;strokeColor=none;fillColor=none;align=left;verticalAlign=top;spacingLeft=4;spacingRight=4;overflow=hidden;rotatable=0;points=[[0,0.5],[1,0.5]];portConstraint=eastwest;" parent="6msiCI85SDnWUIfsM1__-5" vertex="1">
          <mxGeometry y="26" width="290" height="44" as="geometry" />
        </mxCell>
        <mxCell id="6msiCI85SDnWUIfsM1__-7" value="" style="line;strokeWidth=1;fillColor=none;align=left;verticalAlign=middle;spacingTop=-1;spacingLeft=3;spacingRight=3;rotatable=0;labelPosition=right;points=[];portConstraint=eastwest;" parent="6msiCI85SDnWUIfsM1__-5" vertex="1">
          <mxGeometry y="70" width="290" height="4" as="geometry" />
        </mxCell>
        <mxCell id="6msiCI85SDnWUIfsM1__-8" value="- player(conn, player): None&#xa;- handle_queue(): None&#xa;- connect (): None&#xa;" style="text;strokeColor=none;fillColor=none;align=left;verticalAlign=top;spacingLeft=4;spacingRight=4;overflow=hidden;rotatable=0;points=[[0,0.5],[1,0.5]];portConstraint=eastwest;" parent="6msiCI85SDnWUIfsM1__-5" vertex="1">
          <mxGeometry y="74" width="290" height="56" as="geometry" />
        </mxCell>
        <mxCell id="6msiCI85SDnWUIfsM1__-9" style="edgeStyle=orthogonalEdgeStyle;rounded=0;orthogonalLoop=1;jettySize=auto;html=1;exitX=1;exitY=0.5;exitDx=0;exitDy=0;" parent="6msiCI85SDnWUIfsM1__-5" source="6msiCI85SDnWUIfsM1__-6" target="6msiCI85SDnWUIfsM1__-6" edge="1">
          <mxGeometry relative="1" as="geometry" />
        </mxCell>
        <mxCell id="6msiCI85SDnWUIfsM1__-16" value="Player" style="swimlane;fontStyle=1;align=center;verticalAlign=top;childLayout=stackLayout;horizontal=1;startSize=26;horizontalStack=0;resizeParent=1;resizeParentMax=0;resizeLast=0;collapsible=1;marginBottom=0;" parent="1" vertex="1">
          <mxGeometry x="559" y="-200" width="240" height="254" as="geometry" />
        </mxCell>
        <mxCell id="6msiCI85SDnWUIfsM1__-17" value="- ip: str&#xa;- name: strÂ &#xa;- x: int&#xa;- y: int&#xa;- width: int&#xa;- height: int&#xa;- color: tuple&#xa;- vel: int&#xa;- bomb_cap: int&#xa;- bombs: list&#xa;- rect: tuple&#xa;&#xa;&#xa;" style="text;strokeColor=none;fillColor=none;align=left;verticalAlign=top;spacingLeft=4;spacingRight=4;overflow=hidden;rotatable=0;points=[[0,0.5],[1,0.5]];portConstraint=eastwest;" parent="6msiCI85SDnWUIfsM1__-16" vertex="1">
          <mxGeometry y="26" width="240" height="164" as="geometry" />
        </mxCell>
        <mxCell id="6msiCI85SDnWUIfsM1__-18" value="" style="line;strokeWidth=1;fillColor=none;align=left;verticalAlign=middle;spacingTop=-1;spacingLeft=3;spacingRight=3;rotatable=0;labelPosition=right;points=[];portConstraint=eastwest;" parent="6msiCI85SDnWUIfsM1__-16" vertex="1">
          <mxGeometry y="190" width="240" height="22" as="geometry" />
        </mxCell>
        <mxCell id="6msiCI85SDnWUIfsM1__-19" value="- get_ip(): ip&#xa;- get:name: name" style="text;strokeColor=none;fillColor=none;align=left;verticalAlign=top;spacingLeft=4;spacingRight=4;overflow=hidden;rotatable=0;points=[[0,0.5],[1,0.5]];portConstraint=eastwest;" parent="6msiCI85SDnWUIfsM1__-16" vertex="1">
          <mxGeometry y="212" width="240" height="42" as="geometry" />
        </mxCell>
        <mxCell id="6msiCI85SDnWUIfsM1__-20" value="Bomb" style="swimlane;fontStyle=1;align=center;verticalAlign=top;childLayout=stackLayout;horizontal=1;startSize=26;horizontalStack=0;resizeParent=1;resizeParentMax=0;resizeLast=0;collapsible=1;marginBottom=0;" parent="1" vertex="1">
          <mxGeometry x="100" y="-150" width="160" height="86" as="geometry" />
        </mxCell>
        <mxCell id="6msiCI85SDnWUIfsM1__-21" value="- x: int&#xa;- y: int" style="text;strokeColor=none;fillColor=none;align=left;verticalAlign=top;spacingLeft=4;spacingRight=4;overflow=hidden;rotatable=0;points=[[0,0.5],[1,0.5]];portConstraint=eastwest;" parent="6msiCI85SDnWUIfsM1__-20" vertex="1">
          <mxGeometry y="26" width="160" height="26" as="geometry" />
        </mxCell>
        <mxCell id="6msiCI85SDnWUIfsM1__-22" value="" style="line;strokeWidth=1;fillColor=none;align=left;verticalAlign=middle;spacingTop=-1;spacingLeft=3;spacingRight=3;rotatable=0;labelPosition=right;points=[];portConstraint=eastwest;" parent="6msiCI85SDnWUIfsM1__-20" vertex="1">
          <mxGeometry y="52" width="160" height="8" as="geometry" />
        </mxCell>
        <mxCell id="6msiCI85SDnWUIfsM1__-23" value="+ method(type): type" style="text;strokeColor=none;fillColor=none;align=left;verticalAlign=top;spacingLeft=4;spacingRight=4;overflow=hidden;rotatable=0;points=[[0,0.5],[1,0.5]];portConstraint=eastwest;" parent="6msiCI85SDnWUIfsM1__-20" vertex="1">
          <mxGeometry y="60" width="160" height="26" as="geometry" />
        </mxCell>
      </root>
    </mxGraphModel>
  </diagram>
</mxfile>
